<svg xmlns="http://www.w3.org/2000/svg" xmlns:xlink="http://www.w3.org/1999/xlink" width="273" zoomAndPan="magnify" viewBox="0 0 204.75 34.499999" height="46" preserveAspectRatio="xMidYMid meet" version="1.0"><defs><g/><clipPath id="154a99bc18"><path d="M 16.457031 9 L 27 9 L 27 25 L 16.457031 25 Z M 16.457031 9 " clip-rule="nonzero"/></clipPath><clipPath id="8a2a361223"><path d="M 16.457031 9 L 28 9 L 28 25 L 16.457031 25 Z M 16.457031 9 " clip-rule="nonzero"/></clipPath><clipPath id="0dfc223340"><path d="M 36 9 L 46.769531 9 L 46.769531 25 L 36 25 Z M 36 9 " clip-rule="nonzero"/></clipPath><clipPath id="6045905c25"><path d="M 26 5.101562 L 37 5.101562 L 37 28.757812 L 26 28.757812 Z M 26 5.101562 " clip-rule="nonzero"/></clipPath></defs><g clip-path="url(#154a99bc18)"><path fill="#ff7000" d="M 26.128906 24.503906 C 25.960938 24.503906 25.792969 24.445312 25.660156 24.339844 L 17.089844 17.59375 C 16.90625 17.449219 16.800781 17.234375 16.800781 17 C 16.800781 16.765625 16.90625 16.546875 17.089844 16.402344 L 25.660156 9.660156 C 25.792969 9.550781 25.960938 9.496094 26.128906 9.496094 C 26.363281 9.496094 26.582031 9.601562 26.726562 9.785156 C 26.851562 9.945312 26.910156 10.144531 26.886719 10.34375 C 26.863281 10.546875 26.757812 10.726562 26.601562 10.851562 L 18.789062 17 L 26.601562 23.144531 C 26.757812 23.273438 26.863281 23.453125 26.886719 23.652344 C 26.910156 23.855469 26.851562 24.050781 26.726562 24.210938 C 26.582031 24.394531 26.363281 24.503906 26.128906 24.503906 " fill-opacity="1" fill-rule="nonzero"/></g><g clip-path="url(#8a2a361223)"><path fill="#ff7000" d="M 26.128906 9.171875 C 25.890625 9.171875 25.652344 9.253906 25.460938 9.402344 L 16.890625 16.148438 C 16.625 16.355469 16.476562 16.664062 16.476562 17 C 16.476562 17.332031 16.628906 17.644531 16.890625 17.851562 L 25.460938 24.59375 C 25.652344 24.742188 25.890625 24.824219 26.128906 24.824219 C 26.464844 24.824219 26.777344 24.675781 26.980469 24.410156 C 27.160156 24.183594 27.242188 23.902344 27.207031 23.613281 C 27.171875 23.328125 27.027344 23.070312 26.800781 22.890625 L 19.308594 17 L 26.800781 11.105469 C 27.027344 10.925781 27.171875 10.667969 27.207031 10.382812 C 27.242188 10.09375 27.160156 9.8125 26.980469 9.585938 C 26.777344 9.320312 26.464844 9.171875 26.128906 9.171875 Z M 26.128906 9.820312 C 26.261719 9.820312 26.386719 9.875 26.472656 9.984375 C 26.625 10.175781 26.589844 10.449219 26.402344 10.597656 L 18.265625 17 L 26.402344 23.402344 C 26.589844 23.550781 26.625 23.824219 26.472656 24.011719 C 26.386719 24.121094 26.261719 24.179688 26.128906 24.179688 C 26.035156 24.179688 25.941406 24.148438 25.863281 24.085938 L 17.289062 17.339844 C 17.183594 17.257812 17.121094 17.132812 17.121094 17 C 17.121094 16.863281 17.183594 16.738281 17.289062 16.65625 L 25.863281 9.910156 C 25.941406 9.847656 26.035156 9.820312 26.128906 9.820312 " fill-opacity="1" fill-rule="nonzero"/></g><g clip-path="url(#0dfc223340)"><path fill="#ff7000" d="M 37.441406 24.503906 C 37.207031 24.503906 36.992188 24.394531 36.84375 24.210938 C 36.585938 23.882812 36.640625 23.40625 36.972656 23.144531 L 44.785156 17 L 36.972656 10.851562 C 36.640625 10.59375 36.585938 10.113281 36.84375 9.785156 C 36.992188 9.601562 37.207031 9.496094 37.441406 9.496094 C 37.609375 9.496094 37.777344 9.550781 37.910156 9.660156 L 46.484375 16.402344 C 46.667969 16.546875 46.773438 16.765625 46.773438 17 C 46.773438 17.234375 46.667969 17.449219 46.484375 17.59375 L 37.910156 24.339844 C 37.777344 24.445312 37.609375 24.503906 37.441406 24.503906 " fill-opacity="1" fill-rule="nonzero"/><path fill="#ff7000" d="M 37.441406 9.171875 C 37.109375 9.171875 36.796875 9.320312 36.589844 9.585938 C 36.222656 10.054688 36.300781 10.734375 36.773438 11.105469 L 44.261719 17 L 36.773438 22.890625 C 36.300781 23.261719 36.222656 23.945312 36.589844 24.410156 C 36.796875 24.675781 37.109375 24.824219 37.441406 24.824219 C 37.683594 24.824219 37.921875 24.742188 38.109375 24.59375 L 46.683594 17.851562 C 46.945312 17.644531 47.09375 17.332031 47.09375 17 C 47.09375 16.664062 46.945312 16.355469 46.683594 16.148438 L 38.113281 9.402344 C 37.921875 9.253906 37.683594 9.171875 37.441406 9.171875 Z M 37.441406 9.820312 C 37.535156 9.820312 37.632812 9.847656 37.710938 9.910156 L 46.285156 16.65625 C 46.386719 16.738281 46.449219 16.863281 46.449219 17 C 46.449219 17.132812 46.386719 17.257812 46.285156 17.339844 L 37.710938 24.085938 C 37.632812 24.148438 37.535156 24.179688 37.441406 24.179688 C 37.3125 24.179688 37.183594 24.121094 37.097656 24.011719 C 36.949219 23.824219 36.984375 23.550781 37.171875 23.402344 L 45.308594 17 L 37.171875 10.597656 C 36.984375 10.449219 36.949219 10.175781 37.097656 9.984375 C 37.183594 9.875 37.3125 9.820312 37.441406 9.820312 " fill-opacity="1" fill-rule="nonzero"/></g><g clip-path="url(#6045905c25)"><path fill="#ff7000" d="M 27.527344 28.570312 C 27.433594 28.570312 27.339844 28.554688 27.253906 28.519531 C 27.0625 28.445312 26.914062 28.304688 26.832031 28.121094 C 26.75 27.933594 26.746094 27.726562 26.816406 27.539062 L 35.191406 5.910156 C 35.300781 5.621094 35.585938 5.425781 35.898438 5.425781 C 35.992188 5.425781 36.085938 5.445312 36.171875 5.476562 C 36.5625 5.628906 36.757812 6.070312 36.605469 6.460938 L 28.234375 28.085938 C 28.121094 28.375 27.835938 28.570312 27.527344 28.570312 " fill-opacity="1" fill-rule="nonzero"/><path fill="#ff7000" d="M 35.898438 5.101562 C 35.453125 5.101562 35.046875 5.382812 34.890625 5.792969 L 26.515625 27.421875 C 26.414062 27.691406 26.417969 27.984375 26.535156 28.25 C 26.652344 28.515625 26.867188 28.71875 27.136719 28.820312 C 27.261719 28.871094 27.390625 28.894531 27.527344 28.894531 C 27.96875 28.894531 28.375 28.617188 28.535156 28.203125 L 36.90625 6.578125 C 37.125 6.019531 36.84375 5.390625 36.289062 5.175781 C 36.164062 5.125 36.03125 5.101562 35.898438 5.101562 Z M 35.898438 5.75 C 35.949219 5.75 36.003906 5.757812 36.054688 5.777344 C 36.28125 5.867188 36.390625 6.117188 36.304688 6.34375 L 27.933594 27.96875 C 27.867188 28.144531 27.699219 28.25 27.527344 28.25 C 27.472656 28.25 27.421875 28.238281 27.367188 28.21875 C 27.144531 28.132812 27.03125 27.878906 27.121094 27.65625 L 35.492188 6.027344 C 35.558594 5.855469 35.722656 5.75 35.898438 5.75 " fill-opacity="1" fill-rule="nonzero"/></g><g fill="#ffffff" fill-opacity="1"><g transform="translate(51.575977, 25.52999)"><g><path d="M 6.921875 0.34375 C 5.410156 0.34375 3.992188 0.222656 2.671875 -0.015625 L 2.671875 -18.6875 C 3.890625 -18.832031 5.3125 -18.90625 6.9375 -18.90625 C 8.5625 -18.90625 10.03125 -18.679688 11.34375 -18.234375 C 12.664062 -17.796875 13.769531 -17.171875 14.65625 -16.359375 C 16.4375 -14.710938 17.328125 -12.414062 17.328125 -9.46875 C 17.328125 -6.164062 16.332031 -3.660156 14.34375 -1.953125 C 12.5625 -0.421875 10.085938 0.34375 6.921875 0.34375 Z M 6.296875 -3.0625 C 6.898438 -2.945312 7.503906 -2.890625 8.109375 -2.890625 C 8.710938 -2.890625 9.363281 -3.003906 10.0625 -3.234375 C 10.757812 -3.472656 11.363281 -3.847656 11.875 -4.359375 C 12.96875 -5.410156 13.515625 -6.953125 13.515625 -8.984375 C 13.515625 -12.316406 12.300781 -14.363281 9.875 -15.125 C 9.070312 -15.375 8.148438 -15.5 7.109375 -15.5 L 6.71875 -15.5 C 6.582031 -15.5 6.441406 -15.492188 6.296875 -15.484375 Z M 6.296875 -3.0625 "/></g></g></g><g fill="#ffffff" fill-opacity="1"><g transform="translate(70.609381, 25.52999)"><g><path d="M 1.359375 -7.171875 C 1.359375 -8.265625 1.539062 -9.273438 1.90625 -10.203125 C 2.28125 -11.128906 2.804688 -11.941406 3.484375 -12.640625 C 4.941406 -14.117188 6.84375 -14.859375 9.1875 -14.859375 C 11.164062 -14.859375 12.753906 -14.203125 13.953125 -12.890625 C 15.128906 -11.628906 15.71875 -10.039062 15.71875 -8.125 C 15.71875 -7.382812 15.664062 -6.878906 15.5625 -6.609375 C 14.625 -6.347656 12.726562 -6.21875 9.875 -6.21875 L 4.96875 -6.21875 C 5.207031 -5.226562 5.769531 -4.453125 6.65625 -3.890625 C 7.539062 -3.335938 8.691406 -3.0625 10.109375 -3.0625 C 11.585938 -3.0625 12.851562 -3.328125 13.90625 -3.859375 C 14.1875 -4.003906 14.398438 -4.132812 14.546875 -4.25 C 14.523438 -3.863281 14.5 -3.46875 14.46875 -3.0625 L 14.3125 -0.875 C 13.601562 -0.394531 12.460938 -0.0625 10.890625 0.125 C 10.421875 0.175781 9.972656 0.203125 9.546875 0.203125 C 7.179688 0.203125 5.226562 -0.484375 3.6875 -1.859375 C 2.132812 -3.242188 1.359375 -5.015625 1.359375 -7.171875 Z M 12.015625 -8.9375 C 11.628906 -10.9375 10.539062 -11.9375 8.75 -11.9375 C 7.332031 -11.9375 6.257812 -11.328125 5.53125 -10.109375 C 5.300781 -9.734375 5.128906 -9.320312 5.015625 -8.875 C 5.234375 -8.863281 5.503906 -8.851562 5.828125 -8.84375 L 6.859375 -8.84375 C 7.203125 -8.832031 7.535156 -8.828125 7.859375 -8.828125 L 8.65625 -8.828125 C 9.125 -8.828125 9.585938 -8.832031 10.046875 -8.84375 L 11.1875 -8.890625 C 11.5 -8.898438 11.773438 -8.914062 12.015625 -8.9375 Z M 12.015625 -8.9375 "/></g></g></g><g fill="#ffffff" fill-opacity="1"><g transform="translate(87.312448, 25.52999)"><g><path d="M -0.0625 -14.578125 L 3.890625 -14.578125 L 7.296875 -4.984375 L 10.59375 -14.578125 L 14.453125 -14.578125 L 8.6875 0 L 5.8125 0 Z M -0.0625 -14.578125 "/></g></g></g><g fill="#000000" fill-opacity="1"><g transform="translate(101.708789, 25.52999)"><g/></g></g><g fill="#ff7000" fill-opacity="1"><g transform="translate(102.251789, 24.519608)"><g><path d="M 8.359375 -16.1875 C 9.515625 -16.1875 10.503906 -15.972656 11.328125 -15.546875 C 12.148438 -15.117188 12.769531 -14.523438 13.1875 -13.765625 C 13.613281 -13.003906 13.828125 -12.117188 13.828125 -11.109375 C 13.828125 -10.097656 13.613281 -9.210938 13.1875 -8.453125 C 12.769531 -7.691406 12.148438 -7.097656 11.328125 -6.671875 C 10.503906 -6.242188 9.515625 -6.03125 8.359375 -6.03125 L 5.296875 -6.03125 L 5.296875 0 L 2.109375 0 L 2.109375 -16.1875 Z M 7.9375 -8.5625 C 9.71875 -8.5625 10.609375 -9.410156 10.609375 -11.109375 C 10.609375 -12.804688 9.71875 -13.65625 7.9375 -13.65625 L 5.296875 -13.65625 L 5.296875 -8.5625 Z M 7.9375 -8.5625 "/></g></g></g><g fill="#ff7000" fill-opacity="1"><g transform="translate(117.03633, 24.519608)"><g><path d="M 7.09375 0.234375 C 5.894531 0.234375 4.84375 -0.0078125 3.9375 -0.5 C 3.039062 -0.988281 2.34375 -1.707031 1.84375 -2.65625 C 1.34375 -3.601562 1.09375 -4.75 1.09375 -6.09375 C 1.09375 -7.4375 1.34375 -8.582031 1.84375 -9.53125 C 2.34375 -10.488281 3.039062 -11.210938 3.9375 -11.703125 C 4.84375 -12.191406 5.894531 -12.4375 7.09375 -12.4375 C 8.289062 -12.4375 9.34375 -12.191406 10.25 -11.703125 C 11.15625 -11.210938 11.859375 -10.488281 12.359375 -9.53125 C 12.859375 -8.582031 13.109375 -7.4375 13.109375 -6.09375 C 13.109375 -4.75 12.859375 -3.601562 12.359375 -2.65625 C 11.859375 -1.707031 11.15625 -0.988281 10.25 -0.5 C 9.34375 -0.0078125 8.289062 0.234375 7.09375 0.234375 Z M 7.09375 -2.375 C 8.988281 -2.375 9.9375 -3.613281 9.9375 -6.09375 C 9.9375 -7.382812 9.691406 -8.332031 9.203125 -8.9375 C 8.722656 -9.539062 8.019531 -9.84375 7.09375 -9.84375 C 5.195312 -9.84375 4.25 -8.59375 4.25 -6.09375 C 4.25 -3.613281 5.195312 -2.375 7.09375 -2.375 Z M 7.09375 -2.375 "/></g></g></g><g fill="#ff7000" fill-opacity="1"><g transform="translate(131.223292, 24.519608)"><g><path d="M 3.28125 -13.671875 C 2.726562 -13.671875 2.28125 -13.835938 1.9375 -14.171875 C 1.59375 -14.503906 1.421875 -14.9375 1.421875 -15.46875 C 1.421875 -16 1.59375 -16.429688 1.9375 -16.765625 C 2.28125 -17.097656 2.726562 -17.265625 3.28125 -17.265625 C 3.65625 -17.265625 3.984375 -17.1875 4.265625 -17.03125 C 4.554688 -16.875 4.78125 -16.660156 4.9375 -16.390625 C 5.101562 -16.128906 5.1875 -15.820312 5.1875 -15.46875 C 5.1875 -15.125 5.101562 -14.816406 4.9375 -14.546875 C 4.78125 -14.273438 4.554688 -14.0625 4.265625 -13.90625 C 3.984375 -13.75 3.65625 -13.671875 3.28125 -13.671875 Z M 1.765625 0 L 1.765625 -12.203125 L 4.828125 -12.203125 L 4.828125 0 Z M 1.765625 0 "/></g></g></g><g fill="#ff7000" fill-opacity="1"><g transform="translate(137.796658, 24.519608)"><g><path d="M 1.765625 0 L 1.765625 -12.203125 L 4.703125 -12.203125 L 4.703125 -10.421875 L 4.9375 -10.359375 C 5.695312 -11.742188 6.929688 -12.4375 8.640625 -12.4375 C 10.046875 -12.4375 11.078125 -12.050781 11.734375 -11.28125 C 12.398438 -10.519531 12.734375 -9.40625 12.734375 -7.9375 L 12.734375 0 L 9.671875 0 L 9.671875 -7.5625 C 9.671875 -8.375 9.503906 -8.957031 9.171875 -9.3125 C 8.847656 -9.675781 8.328125 -9.859375 7.609375 -9.859375 C 6.734375 -9.859375 6.050781 -9.570312 5.5625 -9 C 5.070312 -8.425781 4.828125 -7.535156 4.828125 -6.328125 L 4.828125 0 Z M 1.765625 0 "/></g></g></g><g fill="#ff7000" fill-opacity="1"><g transform="translate(152.094283, 24.519608)"><g><path d="M 8.421875 -2.90625 L 9.21875 -0.640625 C 8.882812 -0.367188 8.46875 -0.15625 7.96875 0 C 7.46875 0.15625 6.898438 0.234375 6.265625 0.234375 C 4.941406 0.234375 3.9375 -0.125 3.25 -0.84375 C 2.5625 -1.5625 2.21875 -2.609375 2.21875 -3.984375 L 2.21875 -9.78125 L 0.359375 -9.78125 L 0.359375 -12.21875 L 2.21875 -12.21875 L 2.21875 -14.609375 L 5.296875 -15.09375 L 5.296875 -12.21875 L 8.75 -12.21875 L 8.75 -9.78125 L 5.296875 -9.78125 L 5.296875 -4.203125 C 5.296875 -3.597656 5.421875 -3.15625 5.671875 -2.875 C 5.921875 -2.601562 6.285156 -2.46875 6.765625 -2.46875 C 7.304688 -2.46875 7.78125 -2.613281 8.1875 -2.90625 Z M 8.421875 -2.90625 "/></g></g></g><g fill="#ff7000" fill-opacity="1"><g transform="translate(161.578079, 24.519608)"><g><path d="M 12.0625 -5.40625 L 4.21875 -5.40625 C 4.300781 -4.34375 4.601562 -3.570312 5.125 -3.09375 C 5.644531 -2.613281 6.347656 -2.375 7.234375 -2.375 C 7.941406 -2.375 8.507812 -2.503906 8.9375 -2.765625 C 9.375 -3.023438 9.726562 -3.421875 10 -3.953125 L 10.234375 -3.953125 L 12.265625 -2.640625 C 11.867188 -1.785156 11.265625 -1.09375 10.453125 -0.5625 C 9.648438 -0.03125 8.578125 0.234375 7.234375 0.234375 C 5.972656 0.234375 4.882812 -0.00390625 3.96875 -0.484375 C 3.050781 -0.960938 2.34375 -1.675781 1.84375 -2.625 C 1.34375 -3.570312 1.09375 -4.726562 1.09375 -6.09375 C 1.09375 -7.488281 1.351562 -8.660156 1.875 -9.609375 C 2.40625 -10.554688 3.113281 -11.265625 4 -11.734375 C 4.894531 -12.203125 5.898438 -12.4375 7.015625 -12.4375 C 8.742188 -12.4375 10.066406 -11.976562 10.984375 -11.0625 C 11.898438 -10.15625 12.359375 -8.816406 12.359375 -7.046875 C 12.359375 -6.398438 12.335938 -5.898438 12.296875 -5.546875 Z M 9.4375 -7.390625 C 9.40625 -8.328125 9.1875 -9.003906 8.78125 -9.421875 C 8.382812 -9.847656 7.796875 -10.0625 7.015625 -10.0625 C 5.460938 -10.0625 4.550781 -9.171875 4.28125 -7.390625 Z M 9.4375 -7.390625 "/></g></g></g><g fill="#ff7000" fill-opacity="1"><g transform="translate(174.846541, 24.519608)"><g><path d="M 1.765625 0 L 1.765625 -12.203125 L 4.734375 -12.203125 L 4.734375 -10.390625 L 4.96875 -10.34375 C 5.257812 -11.03125 5.644531 -11.53125 6.125 -11.84375 C 6.613281 -12.164062 7.195312 -12.328125 7.875 -12.328125 C 8.570312 -12.328125 9.101562 -12.207031 9.46875 -11.96875 L 8.9375 -9.328125 L 8.71875 -9.28125 C 8.507812 -9.363281 8.3125 -9.421875 8.125 -9.453125 C 7.945312 -9.492188 7.726562 -9.515625 7.46875 -9.515625 C 6.601562 -9.515625 5.945312 -9.210938 5.5 -8.609375 C 5.050781 -8.003906 4.828125 -7.039062 4.828125 -5.71875 L 4.828125 0 Z M 1.765625 0 "/></g></g></g></svg>