<svg xmlns="http://www.w3.org/2000/svg" xmlns:xlink="http://www.w3.org/1999/xlink" width="500" zoomAndPan="magnify" viewBox="0 0 375 374.999991" height="500" preserveAspectRatio="xMidYMid meet" version="1.0"><defs><clipPath id="cd4eed7976"><path d="M 44.398438 112 L 148 112 L 148 263 L 44.398438 263 Z M 44.398438 112 " clip-rule="nonzero"/></clipPath><clipPath id="84d816b58c"><path d="M 234 112 L 337.648438 112 L 337.648438 263 L 234 263 Z M 234 112 " clip-rule="nonzero"/></clipPath><clipPath id="d2dabedbf7"><path d="M 139 73.722656 L 241 73.722656 L 241 300.972656 L 139 300.972656 Z M 139 73.722656 " clip-rule="nonzero"/></clipPath></defs><path fill="#ff7000" d="M 136.871094 259.246094 C 135.25 259.246094 133.652344 258.699219 132.378906 257.6875 L 50.410156 193.195312 C 48.648438 191.8125 47.640625 189.734375 47.640625 187.496094 C 47.640625 185.257812 48.648438 183.179688 50.40625 181.78125 L 132.378906 117.304688 C 133.652344 116.289062 135.25 115.746094 136.871094 115.746094 C 139.109375 115.746094 141.199219 116.746094 142.570312 118.515625 C 143.769531 120.035156 144.3125 121.941406 144.078125 123.855469 C 143.855469 125.785156 142.878906 127.503906 141.359375 128.703125 L 66.652344 187.496094 L 141.359375 246.273438 C 142.878906 247.484375 143.855469 249.203125 144.078125 251.121094 C 144.3125 253.050781 143.769531 254.941406 142.570312 256.476562 C 141.199219 258.230469 139.109375 259.246094 136.871094 259.246094 " fill-opacity="1" fill-rule="nonzero"/><g clip-path="url(#cd4eed7976)"><path fill="#ff7000" d="M 136.871094 112.652344 C 134.558594 112.652344 132.292969 113.433594 130.476562 114.867188 L 48.5 179.359375 C 45.980469 181.347656 44.546875 184.304688 44.546875 187.496094 C 44.546875 190.683594 45.992188 193.652344 48.5 195.632812 L 130.476562 260.125 C 132.28125 261.546875 134.558594 262.335938 136.871094 262.335938 C 140.070312 262.335938 143.039062 260.890625 145.007812 258.378906 C 146.726562 256.214844 147.480469 253.507812 147.15625 250.761719 C 146.824219 248.015625 145.453125 245.554688 143.273438 243.847656 L 71.648438 187.496094 L 143.273438 131.140625 C 145.453125 129.421875 146.824219 126.972656 147.15625 124.226562 C 147.480469 121.484375 146.726562 118.773438 145.007812 116.597656 C 143.039062 114.085938 140.058594 112.652344 136.871094 112.652344 Z M 136.871094 118.835938 C 138.105469 118.835938 139.332031 119.378906 140.144531 120.417969 C 141.582031 122.238281 141.257812 124.859375 139.453125 126.28125 L 61.644531 187.496094 L 139.453125 248.710938 C 141.257812 250.132812 141.582031 252.753906 140.144531 254.558594 C 139.332031 255.609375 138.105469 256.152344 136.871094 256.152344 C 135.964844 256.152344 135.0625 255.871094 134.296875 255.261719 L 52.320312 190.773438 C 51.320312 189.980469 50.730469 188.769531 50.730469 187.496094 C 50.730469 186.207031 51.320312 185.007812 52.320312 184.21875 L 134.296875 119.726562 C 135.050781 119.121094 135.964844 118.835938 136.871094 118.835938 " fill-opacity="1" fill-rule="nonzero"/></g><path fill="#ff7000" d="M 245.027344 259.246094 C 242.789062 259.246094 240.710938 258.230469 239.3125 256.476562 C 236.839844 253.335938 237.382812 248.757812 240.539062 246.273438 L 315.253906 187.496094 L 240.539062 128.703125 C 237.382812 126.230469 236.839844 121.65625 239.3125 118.515625 C 240.710938 116.746094 242.789062 115.746094 245.027344 115.746094 C 246.644531 115.746094 248.242188 116.289062 249.515625 117.304688 L 331.492188 181.78125 C 333.25 183.179688 334.25 185.257812 334.25 187.496094 C 334.25 189.734375 333.25 191.8125 331.480469 193.195312 L 249.515625 257.6875 C 248.242188 258.699219 246.644531 259.246094 245.027344 259.246094 " fill-opacity="1" fill-rule="nonzero"/><g clip-path="url(#84d816b58c)"><path fill="#ff7000" d="M 245.027344 112.652344 C 241.835938 112.652344 238.867188 114.085938 236.890625 116.597656 C 233.351562 121.085938 234.132812 127.605469 238.621094 131.140625 L 310.246094 187.496094 L 238.621094 243.847656 C 234.132812 247.375 233.351562 253.902344 236.890625 258.378906 C 238.867188 260.890625 241.835938 262.335938 245.027344 262.335938 C 247.339844 262.335938 249.601562 261.546875 251.417969 260.125 L 333.398438 195.632812 C 335.90625 193.652344 337.34375 190.6875 337.34375 187.496094 C 337.34375 184.304688 335.90625 181.347656 333.410156 179.359375 L 251.433594 114.867188 C 249.613281 113.433594 247.339844 112.652344 245.027344 112.652344 Z M 245.027344 118.835938 C 245.929688 118.835938 246.84375 119.121094 247.597656 119.726562 L 329.574219 184.21875 C 330.578125 185.007812 331.160156 186.207031 331.160156 187.496094 C 331.160156 188.769531 330.578125 189.980469 329.574219 190.773438 L 247.597656 255.261719 C 246.84375 255.871094 245.929688 256.152344 245.027344 256.152344 C 243.789062 256.152344 242.566406 255.609375 241.75 254.558594 C 240.328125 252.753906 240.636719 250.132812 242.441406 248.707031 L 320.25 187.496094 L 242.441406 126.28125 C 240.636719 124.859375 240.328125 122.238281 241.75 120.417969 C 242.566406 119.378906 243.800781 118.835938 245.027344 118.835938 " fill-opacity="1" fill-rule="nonzero"/></g><path fill="#ff7000" d="M 150.210938 298.164062 C 149.308594 298.164062 148.433594 297.988281 147.589844 297.667969 C 145.785156 296.964844 144.351562 295.601562 143.570312 293.835938 C 142.78125 292.054688 142.742188 290.085938 143.4375 288.28125 L 223.496094 81.464844 C 224.570312 78.695312 227.292969 76.828125 230.261719 76.828125 C 231.164062 76.828125 232.054688 77 232.894531 77.320312 C 236.617188 78.769531 238.484375 82.984375 237.039062 86.71875 L 156.988281 293.523438 C 155.914062 296.296875 153.179688 298.164062 150.210938 298.164062 " fill-opacity="1" fill-rule="nonzero"/><g clip-path="url(#d2dabedbf7)"><path fill="#ff7000" d="M 230.261719 73.734375 C 226.019531 73.734375 222.136719 76.40625 220.613281 80.351562 L 140.554688 287.15625 C 139.566406 289.742188 139.628906 292.546875 140.738281 295.082031 C 141.867188 297.605469 143.894531 299.558594 146.476562 300.550781 C 147.675781 301.019531 148.925781 301.253906 150.210938 301.253906 C 154.453125 301.253906 158.335938 298.59375 159.871094 294.636719 L 239.917969 87.832031 C 241.984375 82.503906 239.324219 76.492188 233.996094 74.441406 C 232.808594 73.972656 231.546875 73.734375 230.261719 73.734375 Z M 230.261719 79.917969 C 230.769531 79.917969 231.273438 80.019531 231.769531 80.203125 C 233.921875 81.03125 234.984375 83.445312 234.15625 85.59375 L 154.097656 292.398438 C 153.464844 294.058594 151.882812 295.070312 150.210938 295.070312 C 149.707031 295.070312 149.199219 294.984375 148.703125 294.785156 C 146.550781 293.957031 145.488281 291.535156 146.328125 289.394531 L 226.378906 82.589844 C 227.019531 80.933594 228.589844 79.917969 230.261719 79.917969 " fill-opacity="1" fill-rule="nonzero"/></g></svg>